<svg xmlns="http://www.w3.org/2000/svg" xmlns:xlink="http://www.w3.org/1999/xlink" width="200" zoomAndPan="magnify" viewBox="0 0 150 225" height="300" preserveAspectRatio="xMidYMid meet" version="1.0"><defs><clipPath id="377708422f"><path d="M 59.582031 194 L 80.582031 194 L 80.582031 219.097656 L 59.582031 219.097656 Z M 59.582031 194 " clip-rule="nonzero"/></clipPath><clipPath id="873ce24980"><path d="M 61 189.097656 L 66 189.097656 L 66 194 L 61 194 Z M 61 189.097656 " clip-rule="nonzero"/></clipPath><clipPath id="5ae572c213"><path d="M 66 189.097656 L 70 189.097656 L 70 194 L 66 194 Z M 66 189.097656 " clip-rule="nonzero"/></clipPath><clipPath id="c2f9b2071c"><path d="M 70 189.097656 L 75 189.097656 L 75 194 L 70 194 Z M 70 189.097656 " clip-rule="nonzero"/></clipPath><clipPath id="b950c540ea"><path d="M 75 189.097656 L 79 189.097656 L 79 194 L 75 194 Z M 75 189.097656 " clip-rule="nonzero"/></clipPath><clipPath id="c13cca426c"><path d="M 0 194 L 21 194 L 21 219.097656 L 0 219.097656 Z M 0 194 " clip-rule="nonzero"/></clipPath><clipPath id="3e606aa2ef"><path d="M 4 189.097656 L 9 189.097656 L 9 194 L 4 194 Z M 4 189.097656 " clip-rule="nonzero"/></clipPath><clipPath id="20cf3450a6"><path d="M 8 189.097656 L 12 189.097656 L 12 194 L 8 194 Z M 8 189.097656 " clip-rule="nonzero"/></clipPath><clipPath id="5711a46d37"><path d="M 12 189.097656 L 16 189.097656 L 16 194 L 12 194 Z M 12 189.097656 " clip-rule="nonzero"/></clipPath><clipPath id="7fa05f8d0a"><path d="M 16.984375 29.824219 L 123.484375 29.824219 L 123.484375 136.324219 L 16.984375 136.324219 Z M 16.984375 29.824219 " clip-rule="nonzero"/></clipPath></defs><g clip-path="url(#377708422f)"><path fill="#e44d26" d="M 80.578125 194.992188 L 78.667969 216.683594 L 70.074219 219.097656 L 61.507812 216.6875 L 59.597656 194.992188 Z M 80.578125 194.992188 " fill-opacity="1" fill-rule="nonzero"/></g><path fill="#f16529" d="M 70.085938 217.253906 L 77.03125 215.304688 L 78.664062 196.765625 L 70.085938 196.765625 Z M 70.085938 217.253906 " fill-opacity="1" fill-rule="nonzero"/><path fill="#ebebeb" d="M 66.371094 202.089844 L 70.085938 202.089844 L 70.085938 199.425781 L 63.503906 199.425781 L 63.566406 200.140625 L 64.210938 207.472656 L 70.085938 207.472656 L 70.085938 204.8125 L 66.613281 204.8125 Z M 66.371094 202.089844 " fill-opacity="1" fill-rule="nonzero"/><path fill="#ebebeb" d="M 66.964844 208.804688 L 64.328125 208.804688 L 64.695312 212.980469 L 70.074219 214.496094 L 70.085938 214.492188 L 70.085938 211.722656 L 70.078125 211.726562 L 67.152344 210.925781 Z M 66.964844 208.804688 " fill-opacity="1" fill-rule="nonzero"/><g clip-path="url(#873ce24980)"><path fill="#000000" d="M 61.550781 189.097656 L 62.886719 189.097656 L 62.886719 190.433594 L 64.105469 190.433594 L 64.105469 189.097656 L 65.441406 189.097656 L 65.441406 193.144531 L 64.105469 193.144531 L 64.105469 191.789062 L 62.886719 191.789062 L 62.886719 193.144531 L 61.550781 193.144531 Z M 61.550781 189.097656 " fill-opacity="1" fill-rule="nonzero"/></g><g clip-path="url(#5ae572c213)"><path fill="#000000" d="M 67.195312 190.441406 L 66.019531 190.441406 L 66.019531 189.097656 L 69.707031 189.097656 L 69.707031 190.441406 L 68.53125 190.441406 L 68.53125 193.144531 L 67.195312 193.144531 Z M 67.195312 190.441406 " fill-opacity="1" fill-rule="nonzero"/></g><g clip-path="url(#c2f9b2071c)"><path fill="#000000" d="M 70.289062 189.097656 L 71.683594 189.097656 L 72.539062 190.519531 L 73.394531 189.097656 L 74.785156 189.097656 L 74.785156 193.144531 L 73.457031 193.144531 L 73.457031 191.136719 L 72.539062 192.578125 L 72.515625 192.578125 L 71.597656 191.136719 L 71.597656 193.144531 L 70.289062 193.144531 Z M 70.289062 189.097656 " fill-opacity="1" fill-rule="nonzero"/></g><g clip-path="url(#b950c540ea)"><path fill="#000000" d="M 75.449219 189.097656 L 76.785156 189.097656 L 76.785156 191.804688 L 78.664062 191.804688 L 78.664062 193.144531 L 75.449219 193.144531 Z M 75.449219 189.097656 " fill-opacity="1" fill-rule="nonzero"/></g><path fill="#ffffff" d="M 70.078125 207.472656 L 73.3125 207.472656 L 73.007812 210.925781 L 70.078125 211.726562 L 70.078125 214.492188 L 75.460938 212.980469 L 75.503906 212.53125 L 76.121094 205.527344 L 76.183594 204.8125 L 70.078125 204.8125 Z M 70.078125 207.472656 " fill-opacity="1" fill-rule="nonzero"/><path fill="#ffffff" d="M 70.078125 202.082031 L 70.078125 202.089844 L 76.421875 202.089844 L 76.476562 201.492188 L 76.59375 200.140625 L 76.65625 199.425781 L 70.078125 199.425781 Z M 70.078125 202.082031 " fill-opacity="1" fill-rule="nonzero"/><g clip-path="url(#c13cca426c)"><path fill="#264de4" d="M 10.492188 219.097656 L 1.921875 216.6875 L 0.015625 194.992188 L 20.992188 194.992188 L 19.082031 216.683594 Z M 10.492188 219.097656 " fill-opacity="1" fill-rule="nonzero"/></g><path fill="#2965f1" d="M 17.445312 215.304688 L 19.078125 196.765625 L 10.503906 196.765625 L 10.503906 217.253906 Z M 17.445312 215.304688 " fill-opacity="1" fill-rule="nonzero"/><path fill="#ebebeb" d="M 4.390625 204.8125 L 4.625 207.472656 L 10.503906 207.472656 L 10.503906 204.8125 Z M 4.390625 204.8125 " fill-opacity="1" fill-rule="nonzero"/><path fill="#ebebeb" d="M 3.917969 199.425781 L 4.15625 202.089844 L 10.503906 202.089844 L 10.503906 199.425781 Z M 3.917969 199.425781 " fill-opacity="1" fill-rule="nonzero"/><path fill="#ebebeb" d="M 10.503906 211.722656 L 10.492188 211.726562 L 7.566406 210.925781 L 7.378906 208.804688 L 4.742188 208.804688 L 5.113281 212.980469 L 10.492188 214.496094 L 10.503906 214.492188 Z M 10.503906 211.722656 " fill-opacity="1" fill-rule="nonzero"/><g clip-path="url(#3e606aa2ef)"><path fill="#000000" d="M 4.953125 189.097656 L 8.132812 189.097656 L 8.132812 190.445312 L 6.28125 190.445312 L 6.28125 191.792969 L 8.132812 191.792969 L 8.132812 193.140625 L 4.953125 193.140625 Z M 4.953125 189.097656 " fill-opacity="1" fill-rule="nonzero"/></g><g clip-path="url(#20cf3450a6)"><path fill="#000000" d="M 8.769531 189.097656 L 11.949219 189.097656 L 11.949219 190.269531 L 10.097656 190.269531 L 10.097656 190.503906 L 11.949219 190.503906 L 11.949219 193.199219 L 8.769531 193.199219 L 8.769531 191.96875 L 10.621094 191.96875 L 10.621094 191.734375 L 8.769531 191.734375 Z M 8.769531 189.097656 " fill-opacity="1" fill-rule="nonzero"/></g><g clip-path="url(#5711a46d37)"><path fill="#000000" d="M 12.585938 189.097656 L 15.765625 189.097656 L 15.765625 190.269531 L 13.917969 190.269531 L 13.917969 190.503906 L 15.765625 190.503906 L 15.765625 193.199219 L 12.585938 193.199219 L 12.585938 191.96875 L 14.4375 191.96875 L 14.4375 191.734375 L 12.585938 191.734375 Z M 12.585938 189.097656 " fill-opacity="1" fill-rule="nonzero"/></g><path fill="#ffffff" d="M 16.601562 204.8125 L 17.074219 199.425781 L 10.496094 199.425781 L 10.496094 202.089844 L 14.195312 202.089844 L 13.957031 204.8125 L 10.496094 204.8125 L 10.496094 207.472656 L 13.730469 207.472656 L 13.425781 210.925781 L 10.496094 211.726562 L 10.496094 214.492188 L 15.878906 212.980469 L 15.917969 212.53125 L 16.535156 205.527344 Z M 16.601562 204.8125 " fill-opacity="1" fill-rule="nonzero"/><g clip-path="url(#7fa05f8d0a)"><path fill="#000000" d="M 123.402344 86.886719 L 123.402344 48.761719 C 123.402344 47.574219 123.402344 46.390625 123.402344 45.289062 C 123.402344 45.203125 123.484375 45.035156 123.484375 44.949219 C 123.484375 44.863281 123.484375 44.695312 123.402344 44.609375 C 123.402344 41.8125 123.402344 39.019531 123.402344 36.222656 C 123.402344 32.75 120.691406 29.953125 117.214844 29.867188 C 117.214844 29.867188 117.132812 29.867188 117.132812 29.867188 L 23.765625 29.867188 C 23.425781 29.867188 23.085938 29.867188 22.832031 29.867188 C 19.613281 30.039062 16.984375 32.75 16.984375 35.96875 C 16.984375 36.898438 16.984375 37.832031 16.984375 38.765625 L 16.984375 128.65625 C 16.984375 130.859375 17.15625 133.0625 18.933594 134.671875 C 20.714844 136.285156 22.578125 136.285156 24.695312 136.285156 L 117.214844 136.285156 C 120.519531 136.199219 123.230469 133.570312 123.316406 130.269531 C 123.316406 130.011719 123.316406 129.675781 123.316406 129.421875 L 123.316406 87.566406 C 123.316406 87.480469 123.402344 87.3125 123.402344 87.226562 C 123.402344 87.140625 123.484375 86.972656 123.402344 86.886719 Z M 19.105469 45.964844 L 109.507812 45.964844 C 113.402344 45.964844 117.386719 46.136719 121.28125 45.964844 L 121.28125 86.125 L 30.964844 86.125 C 26.984375 86.125 23.085938 85.957031 19.105469 86.125 L 19.105469 47.320312 C 19.105469 46.898438 19.105469 46.390625 19.105469 45.964844 Z M 19.105469 36.054688 C 19.105469 33.851562 20.882812 31.984375 23.171875 31.984375 L 103.660156 31.984375 C 108.066406 31.984375 112.472656 31.984375 116.878906 31.984375 C 119.164062 31.816406 121.113281 33.597656 121.28125 35.882812 C 121.28125 35.96875 121.28125 36.136719 121.28125 36.222656 C 121.28125 37.578125 121.28125 38.933594 121.28125 40.289062 L 121.28125 43.761719 L 30.964844 43.761719 C 26.984375 43.761719 23.085938 43.59375 19.105469 43.761719 C 19.105469 41.222656 19.105469 38.679688 19.105469 36.054688 Z M 121.28125 130.183594 C 121.28125 132.386719 119.503906 134.25 117.300781 134.25 L 25.289062 134.25 C 24.019531 134.25 22.492188 134.417969 21.308594 133.828125 C 19.1875 132.726562 19.1875 130.691406 19.1875 128.65625 L 19.1875 88.328125 L 109.589844 88.328125 C 113.488281 88.328125 117.46875 88.496094 121.367188 88.328125 L 121.367188 129.167969 C 121.28125 129.503906 121.28125 129.84375 121.28125 130.183594 Z M 121.28125 130.183594 " fill-opacity="1" fill-rule="nonzero"/></g><path fill="#000000" d="M 51.554688 113.324219 L 51.554688 101.121094 C 51.554688 99.9375 51.554688 98.75 51.554688 97.648438 C 51.640625 95.613281 50.027344 93.921875 47.996094 93.835938 C 45.03125 93.75 42.066406 93.835938 39.097656 93.835938 C 35.878906 93.835938 32.574219 93.75 29.355469 93.835938 C 27.324219 93.75 25.628906 95.359375 25.542969 97.394531 C 25.542969 97.394531 25.542969 97.394531 25.542969 97.480469 C 25.542969 98.410156 25.542969 99.34375 25.542969 100.273438 L 25.542969 116.710938 C 25.542969 118.40625 26.050781 119.929688 27.660156 120.695312 C 28.679688 121.03125 29.78125 121.117188 30.882812 121.03125 L 47.910156 121.03125 C 47.996094 121.03125 48.082031 121.03125 48.164062 120.949219 C 50.113281 120.777344 51.640625 119.167969 51.554688 117.136719 C 51.554688 117.136719 51.554688 117.050781 51.554688 117.050781 C 51.554688 115.863281 51.554688 114.59375 51.554688 113.324219 Z M 49.4375 117.304688 C 49.4375 118.152344 48.757812 118.828125 47.910156 118.828125 L 30.117188 118.828125 C 29.015625 118.828125 27.746094 118.828125 27.578125 117.304688 C 27.492188 116.625 27.578125 115.863281 27.578125 115.1875 L 27.578125 99.34375 C 27.492188 98.582031 27.492188 97.734375 27.660156 96.96875 C 28.085938 95.785156 29.355469 96.039062 30.371094 96.039062 L 46.046875 96.039062 C 46.894531 95.953125 47.742188 95.953125 48.589844 96.207031 C 49.605469 96.714844 49.4375 97.902344 49.4375 98.835938 L 49.4375 109.339844 C 49.4375 111.882812 49.519531 114.59375 49.4375 117.304688 Z M 49.4375 117.304688 " fill-opacity="1" fill-rule="nonzero"/><path fill="#000000" d="M 46.132812 123.066406 L 30.964844 123.066406 C 30.371094 123.066406 29.949219 123.574219 29.949219 124.082031 C 29.949219 124.589844 30.457031 125.097656 30.964844 125.097656 L 46.132812 125.097656 C 46.726562 125.097656 47.148438 124.589844 47.148438 124.082031 C 47.148438 123.574219 46.726562 123.066406 46.132812 123.066406 Z M 46.132812 123.066406 " fill-opacity="1" fill-rule="nonzero"/><path fill="#000000" d="M 46.132812 126.539062 L 30.964844 126.539062 C 30.371094 126.539062 29.949219 127.046875 29.949219 127.554688 C 29.949219 128.148438 30.457031 128.574219 30.964844 128.574219 L 46.132812 128.574219 C 46.726562 128.574219 47.148438 128.066406 47.148438 127.554688 C 47.148438 127.046875 46.726562 126.539062 46.132812 126.539062 Z M 46.132812 126.539062 " fill-opacity="1" fill-rule="nonzero"/><path fill="#000000" d="M 83.242188 113.324219 L 83.242188 101.121094 C 83.242188 99.9375 83.242188 98.75 83.242188 97.648438 C 83.324219 95.613281 81.714844 93.921875 79.683594 93.835938 C 76.71875 93.75 73.753906 93.835938 70.785156 93.835938 C 67.566406 93.835938 64.261719 93.75 61.042969 93.835938 C 59.011719 93.75 57.316406 95.445312 57.316406 97.480469 C 57.316406 98.410156 57.316406 99.34375 57.316406 100.273438 L 57.316406 116.710938 C 57.316406 118.40625 57.824219 119.929688 59.433594 120.695312 C 60.449219 121.03125 61.550781 121.117188 62.652344 121.03125 L 79.683594 121.03125 C 79.769531 121.03125 79.851562 121.03125 79.9375 120.949219 C 81.886719 120.777344 83.324219 119.082031 83.242188 117.136719 C 83.242188 117.136719 83.242188 117.136719 83.242188 117.050781 C 83.242188 115.863281 83.242188 114.59375 83.242188 113.324219 Z M 81.125 117.304688 C 81.125 118.152344 80.445312 118.828125 79.597656 118.828125 L 61.804688 118.828125 C 60.703125 118.828125 59.433594 118.828125 59.265625 117.304688 C 59.179688 116.625 59.265625 115.863281 59.265625 115.1875 L 59.265625 99.34375 C 59.179688 98.582031 59.179688 97.734375 59.347656 96.96875 C 59.773438 95.785156 61.042969 96.039062 62.058594 96.039062 L 77.734375 96.039062 C 78.582031 95.953125 79.429688 95.953125 80.277344 96.207031 C 81.292969 96.714844 81.125 97.902344 81.125 98.835938 L 81.125 109.339844 C 81.125 111.882812 81.292969 114.59375 81.125 117.304688 Z M 81.125 117.304688 " fill-opacity="1" fill-rule="nonzero"/><path fill="#000000" d="M 77.820312 123.066406 L 62.652344 123.066406 C 62.058594 123.066406 61.636719 123.574219 61.636719 124.082031 C 61.636719 124.589844 62.144531 125.097656 62.652344 125.097656 L 77.820312 125.097656 C 78.410156 125.097656 78.835938 124.589844 78.835938 124.082031 C 78.835938 123.574219 78.410156 123.066406 77.820312 123.066406 Z M 77.820312 123.066406 " fill-opacity="1" fill-rule="nonzero"/><path fill="#000000" d="M 77.820312 126.539062 L 62.652344 126.539062 C 62.058594 126.539062 61.636719 127.046875 61.636719 127.554688 C 61.636719 128.148438 62.144531 128.574219 62.652344 128.574219 L 77.820312 128.574219 C 78.410156 128.574219 78.835938 128.066406 78.835938 127.554688 C 78.835938 127.046875 78.410156 126.539062 77.820312 126.539062 Z M 77.820312 126.539062 " fill-opacity="1" fill-rule="nonzero"/><path fill="#000000" d="M 114.929688 113.324219 L 114.929688 101.121094 C 114.929688 99.9375 114.929688 98.75 114.929688 97.648438 C 115.011719 95.613281 113.402344 93.921875 111.371094 93.835938 C 108.40625 93.75 105.441406 93.835938 102.472656 93.835938 C 99.253906 93.835938 95.949219 93.75 92.730469 93.835938 C 90.695312 93.835938 89.003906 95.445312 89.003906 97.480469 C 89.003906 98.410156 89.003906 99.34375 89.003906 100.273438 L 89.003906 116.710938 C 89.003906 118.40625 89.511719 119.929688 91.121094 120.695312 C 92.136719 121.03125 93.238281 121.117188 94.339844 121.03125 L 111.371094 121.03125 C 111.453125 121.03125 111.539062 121.03125 111.710938 120.949219 C 113.574219 120.695312 115.011719 119.082031 114.929688 117.136719 C 114.929688 117.136719 114.929688 117.136719 114.929688 117.050781 C 114.929688 115.863281 114.929688 114.59375 114.929688 113.324219 Z M 112.8125 117.304688 C 112.8125 118.152344 112.132812 118.828125 111.285156 118.828125 L 93.492188 118.828125 C 92.390625 118.828125 91.121094 118.828125 90.953125 117.304688 C 90.867188 116.625 90.953125 115.863281 90.953125 115.1875 L 90.953125 99.34375 C 90.867188 98.582031 90.867188 97.734375 91.035156 96.96875 C 91.460938 95.785156 92.730469 96.039062 93.746094 96.039062 L 109.335938 96.039062 C 110.183594 95.953125 111.03125 95.953125 111.878906 96.207031 C 112.894531 96.714844 112.726562 97.902344 112.726562 98.835938 L 112.726562 109.339844 C 112.8125 111.882812 112.980469 114.59375 112.8125 117.304688 Z M 112.8125 117.304688 " fill-opacity="1" fill-rule="nonzero"/><path fill="#000000" d="M 109.507812 123.066406 L 94.339844 123.066406 C 93.746094 123.066406 93.324219 123.574219 93.324219 124.082031 C 93.324219 124.589844 93.832031 125.097656 94.339844 125.097656 L 109.507812 125.097656 C 110.097656 125.097656 110.523438 124.589844 110.523438 124.082031 C 110.523438 123.574219 110.097656 123.066406 109.507812 123.066406 Z M 109.507812 123.066406 " fill-opacity="1" fill-rule="nonzero"/><path fill="#000000" d="M 109.507812 126.539062 L 94.339844 126.539062 C 93.746094 126.539062 93.324219 127.046875 93.324219 127.554688 C 93.324219 128.148438 93.832031 128.574219 94.339844 128.574219 L 109.507812 128.574219 C 110.097656 128.574219 110.523438 128.066406 110.523438 127.554688 C 110.609375 127.046875 110.097656 126.539062 109.507812 126.539062 Z M 109.507812 126.539062 " fill-opacity="1" fill-rule="nonzero"/><path fill="#000000" d="M 29.441406 38.253906 C 29.441406 38.253906 29.441406 38.171875 29.441406 38.253906 C 29.441406 38.171875 29.441406 38.171875 29.441406 38.171875 C 29.355469 38.171875 29.355469 38.253906 29.441406 38.253906 Z M 29.441406 38.253906 " fill-opacity="1" fill-rule="nonzero"/><path fill="#000000" d="M 30.710938 40.628906 C 31.21875 39.949219 31.558594 39.1875 31.558594 38.339844 C 31.558594 38.171875 31.558594 38 31.472656 37.917969 C 31.304688 36.644531 30.371094 35.460938 29.101562 35.035156 C 27.746094 34.527344 26.222656 34.953125 25.289062 36.054688 C 24.019531 37.578125 24.1875 39.78125 25.710938 41.050781 C 27.152344 42.324219 29.441406 42.152344 30.710938 40.628906 Z M 26.476562 38.253906 C 26.476562 38.171875 26.476562 38.171875 26.476562 38.085938 C 26.476562 38 26.558594 37.832031 26.558594 37.746094 L 26.730469 37.410156 C 26.8125 37.324219 26.898438 37.238281 26.984375 37.15625 C 26.984375 37.15625 27.066406 37.15625 27.066406 37.15625 C 27.152344 37.15625 27.40625 36.984375 27.40625 36.984375 C 27.40625 36.984375 27.152344 37.070312 27.324219 36.984375 L 27.492188 36.898438 L 27.578125 36.898438 C 27.578125 36.898438 27.578125 36.898438 27.660156 36.898438 C 27.660156 36.898438 27.746094 36.898438 27.746094 36.898438 L 28.085938 36.898438 L 28.425781 36.984375 L 28.59375 37.070312 L 28.933594 37.410156 C 28.933594 37.492188 29.015625 37.492188 29.015625 37.578125 L 29.101562 37.746094 C 29.1875 37.917969 29.1875 38 29.1875 38.085938 C 29.1875 38.085938 29.1875 38.171875 29.1875 38.171875 C 29.1875 38.253906 29.1875 38.253906 29.1875 38.253906 C 29.1875 38.339844 29.1875 38.339844 29.1875 38.425781 C 29.1875 38.511719 29.1875 38.511719 29.1875 38.59375 C 29.1875 38.679688 29.101562 38.765625 29.101562 38.847656 C 29.101562 38.847656 29.101562 38.933594 29.101562 38.933594 C 29.101562 38.933594 29.101562 38.933594 29.015625 39.019531 C 28.933594 39.1875 28.933594 39.273438 28.847656 39.355469 C 28.847656 39.355469 28.761719 39.441406 28.761719 39.441406 L 28.679688 39.527344 C 28.59375 39.527344 28.507812 39.695312 28.425781 39.695312 L 28.339844 39.78125 L 28 39.867188 C 27.914062 39.867188 27.914062 39.867188 27.914062 39.867188 C 27.832031 39.867188 27.746094 39.867188 27.578125 39.867188 L 27.40625 39.867188 L 27.238281 39.78125 C 27.066406 39.695312 27.324219 39.78125 27.324219 39.78125 C 27.324219 39.78125 27.066406 39.695312 27.066406 39.613281 L 26.984375 39.527344 C 26.898438 39.441406 26.8125 39.355469 26.730469 39.273438 C 26.730469 39.273438 26.8125 39.441406 26.730469 39.355469 L 26.558594 39.019531 L 26.558594 38.933594 C 26.558594 38.847656 26.558594 38.847656 26.558594 38.933594 C 26.558594 38.847656 26.476562 38.765625 26.476562 38.679688 C 26.476562 38.59375 26.476562 38.59375 26.476562 38.511719 C 26.476562 38.425781 26.476562 38.339844 26.476562 38.253906 Z M 26.476562 38.253906 " fill-opacity="1" fill-rule="nonzero"/><path fill="#000000" d="M 26.476562 38.253906 C 26.558594 38 26.476562 38.085938 26.476562 38.253906 Z M 26.476562 38.253906 " fill-opacity="1" fill-rule="nonzero"/><path fill="#000000" d="M 39.269531 40.710938 C 39.863281 40.035156 40.117188 39.273438 40.117188 38.425781 C 40.117188 36.898438 39.183594 35.542969 37.742188 35.035156 C 36.386719 34.527344 34.777344 34.953125 33.847656 36.054688 C 32.574219 37.578125 32.746094 39.78125 34.183594 41.136719 C 35.710938 42.40625 37.996094 42.238281 39.269531 40.710938 Z M 35.03125 38.253906 C 35.03125 38.171875 35.03125 38.171875 35.03125 38.085938 C 35.03125 38 35.117188 37.832031 35.117188 37.746094 L 35.203125 37.578125 L 35.285156 37.410156 C 35.285156 37.410156 35.457031 37.15625 35.539062 37.15625 C 35.539062 37.15625 35.539062 37.15625 35.625 37.15625 C 35.710938 37.070312 35.878906 37.070312 35.964844 36.984375 C 35.964844 36.984375 35.710938 37.070312 35.878906 36.984375 L 36.050781 36.898438 L 36.132812 36.898438 C 36.132812 36.898438 36.132812 36.898438 36.21875 36.898438 C 36.21875 36.898438 36.304688 36.898438 36.304688 36.898438 L 36.640625 36.898438 L 37.066406 36.984375 C 37.234375 37.070312 37.234375 37.070312 37.234375 37.070312 L 37.320312 37.15625 C 37.40625 37.238281 37.488281 37.324219 37.574219 37.410156 C 37.574219 37.492188 37.660156 37.492188 37.660156 37.578125 C 37.660156 37.664062 37.742188 37.664062 37.742188 37.746094 C 37.996094 38 37.996094 38.085938 37.996094 38.171875 C 37.996094 38.171875 37.996094 38.253906 37.996094 38.253906 C 37.996094 38.339844 37.996094 38.339844 37.996094 38.339844 C 37.996094 38.425781 37.996094 38.425781 37.996094 38.511719 C 37.996094 38.511719 37.996094 38.59375 37.996094 38.59375 C 37.996094 38.59375 37.914062 38.847656 37.914062 38.933594 C 37.914062 38.933594 37.914062 39.019531 37.914062 39.019531 C 37.914062 39.019531 37.914062 39.019531 37.828125 39.101562 C 37.742188 39.1875 37.660156 39.355469 37.660156 39.441406 C 37.660156 39.441406 37.574219 39.527344 37.574219 39.527344 C 37.574219 39.527344 37.488281 39.613281 37.488281 39.613281 C 37.40625 39.613281 37.320312 39.78125 37.234375 39.78125 L 37.152344 39.695312 L 36.8125 39.78125 C 36.640625 39.78125 36.8125 39.78125 36.8125 39.78125 C 36.8125 39.78125 36.640625 39.78125 36.640625 39.78125 C 36.558594 39.78125 36.472656 39.78125 36.304688 39.78125 C 36.304688 39.78125 36.304688 39.78125 36.21875 39.78125 L 36.050781 39.78125 L 35.878906 39.695312 C 35.710938 39.613281 35.964844 39.695312 35.964844 39.695312 C 35.878906 39.613281 35.796875 39.613281 35.710938 39.527344 L 35.539062 39.441406 C 35.457031 39.355469 35.371094 39.273438 35.285156 39.1875 C 35.285156 39.1875 35.285156 39.273438 35.285156 39.1875 L 35.203125 39.101562 C 35.203125 39.101562 35.117188 39.019531 35.117188 39.019531 L 35.117188 38.933594 C 35.117188 38.847656 35.117188 38.847656 35.117188 39.019531 C 35.117188 39.019531 35.03125 38.765625 35.03125 38.679688 L 35.03125 38.511719 C 35.03125 38.425781 35.03125 38.339844 35.03125 38.253906 Z M 35.03125 38.253906 " fill-opacity="1" fill-rule="nonzero"/><path fill="#000000" d="M 35.03125 38.253906 C 35.117188 38 35.03125 38.171875 35.03125 38.253906 Z M 35.03125 38.253906 " fill-opacity="1" fill-rule="nonzero"/><path fill="#000000" d="M 45.878906 41.898438 C 47.570312 41.558594 48.671875 40.121094 48.757812 38.425781 C 48.757812 38.339844 48.757812 38.253906 48.671875 38.171875 C 48.589844 36.730469 47.65625 35.542969 46.300781 35.035156 C 44.4375 34.441406 42.402344 35.460938 41.726562 37.324219 C 41.386719 38.339844 41.472656 39.355469 42.066406 40.289062 C 42.910156 41.558594 44.4375 42.238281 45.878906 41.898438 Z M 43.675781 38.253906 C 43.675781 38.171875 43.675781 38.171875 43.675781 38.085938 C 43.675781 38 43.757812 37.832031 43.757812 37.746094 L 43.929688 37.410156 C 43.929688 37.410156 44.097656 37.15625 44.183594 37.15625 C 44.183594 37.15625 44.269531 37.070312 44.269531 37.070312 C 44.351562 36.984375 44.523438 36.984375 44.605469 36.898438 C 44.605469 36.898438 44.351562 36.984375 44.523438 36.898438 L 44.691406 36.816406 L 44.777344 36.816406 C 44.777344 36.816406 44.777344 36.816406 44.859375 36.816406 C 44.859375 36.816406 44.945312 36.816406 44.945312 36.816406 L 45.285156 36.816406 L 45.707031 36.898438 C 45.878906 36.984375 45.878906 36.984375 45.878906 36.984375 C 45.878906 36.984375 45.960938 36.984375 45.960938 37.070312 L 46.046875 37.070312 L 46.300781 37.324219 C 46.300781 37.410156 46.386719 37.410156 46.386719 37.492188 L 46.46875 37.664062 C 46.554688 37.832031 46.554688 37.917969 46.554688 38 C 46.640625 37.917969 46.554688 38.253906 46.554688 38.253906 C 46.554688 38.253906 46.554688 38.339844 46.554688 38.339844 C 46.554688 38.425781 46.46875 38.511719 46.46875 38.59375 C 46.46875 38.59375 46.46875 38.679688 46.46875 38.679688 C 46.46875 38.679688 46.46875 38.679688 46.386719 38.765625 L 46.214844 39.101562 C 46.214844 39.101562 46.132812 39.1875 46.132812 39.1875 L 46.046875 39.273438 C 45.960938 39.355469 45.878906 39.441406 45.792969 39.441406 L 45.707031 39.527344 L 45.367188 39.613281 C 45.285156 39.613281 45.285156 39.613281 45.199219 39.613281 C 45.113281 39.613281 44.945312 39.613281 44.859375 39.613281 L 44.777344 39.613281 L 44.605469 39.527344 C 44.4375 39.441406 44.691406 39.527344 44.691406 39.527344 C 44.691406 39.527344 44.4375 39.441406 44.4375 39.355469 C 44.351562 39.355469 44.351562 39.273438 44.269531 39.273438 C 44.183594 39.1875 44.097656 39.101562 44.011719 39.019531 C 44.011719 39.019531 44.011719 39.101562 44.011719 39.019531 L 43.929688 38.847656 C 43.929688 38.847656 43.929688 38.765625 43.84375 38.765625 L 43.84375 38.679688 C 43.84375 38.59375 43.84375 38.59375 43.84375 38.679688 C 43.84375 38.59375 43.757812 38.511719 43.757812 38.425781 L 43.757812 38.253906 C 43.675781 38.425781 43.675781 38.339844 43.675781 38.253906 Z M 43.675781 38.253906 " fill-opacity="1" fill-rule="nonzero"/><path fill="#000000" d="M 46.640625 38.171875 C 46.554688 38.253906 46.640625 38.339844 46.640625 38.171875 Z M 46.640625 38.171875 " fill-opacity="1" fill-rule="nonzero"/><path fill="#000000" d="M 43.675781 38.253906 C 43.757812 38 43.675781 38.171875 43.675781 38.253906 Z M 43.675781 38.253906 " fill-opacity="1" fill-rule="nonzero"/><path fill="#000000" d="M 66.210938 41.898438 L 89.597656 41.898438 C 97.136719 41.898438 104.59375 42.070312 112.132812 41.898438 L 112.554688 41.898438 C 114.335938 41.898438 115.859375 40.542969 116.113281 38.765625 C 116.285156 37.15625 115.351562 35.542969 113.828125 34.953125 C 112.980469 34.699219 112.21875 34.613281 111.371094 34.699219 L 72.734375 34.699219 C 70.363281 34.699219 67.992188 34.613281 65.703125 34.699219 C 63.667969 34.699219 62.058594 36.308594 62.058594 38.253906 C 62.058594 38.847656 62.230469 39.441406 62.484375 40.035156 C 63.332031 41.558594 64.6875 41.898438 66.210938 41.898438 Z M 66.382812 36.898438 L 107.304688 36.898438 C 108.996094 36.898438 110.691406 36.730469 112.386719 36.898438 C 113.234375 36.984375 113.828125 37.664062 113.742188 38.511719 C 113.65625 39.273438 113.148438 39.78125 112.386719 39.867188 L 66.382812 39.867188 C 65.363281 39.867188 64.09375 39.78125 64.09375 38.425781 C 64.09375 37.070312 65.449219 36.898438 66.382812 36.898438 Z M 66.382812 36.898438 " fill-opacity="1" fill-rule="nonzero"/><path fill="#000000" d="M 39.269531 77.992188 L 53.417969 68.332031 L 67.484375 77.992188 C 68.582031 78.753906 69.683594 76.976562 68.582031 76.128906 L 59.601562 70.027344 L 72.820312 61.046875 L 86.96875 70.707031 C 88.070312 71.46875 89.171875 69.6875 88.070312 68.839844 L 73.328125 58.84375 C 72.988281 58.675781 72.566406 58.675781 72.226562 58.84375 L 57.738281 68.757812 L 53.925781 66.128906 C 53.585938 65.960938 53.164062 65.960938 52.824219 66.128906 L 38.167969 76.210938 C 37.066406 76.976562 38.167969 78.839844 39.269531 77.992188 Z M 39.269531 77.992188 " fill-opacity="1" fill-rule="nonzero"/><path fill="#000000" d="M 97.8125 60.625 C 98.40625 59.859375 98.746094 58.929688 98.746094 57.996094 C 98.746094 56.300781 97.644531 54.777344 96.035156 54.183594 C 94.511719 53.589844 92.730469 54.097656 91.628906 55.371094 C 90.1875 57.066406 90.359375 59.605469 92.054688 61.046875 C 93.746094 62.488281 96.375 62.316406 97.8125 60.625 Z M 92.898438 57.742188 L 92.898438 57.65625 C 92.898438 57.574219 92.898438 57.574219 92.898438 57.574219 C 92.898438 57.574219 92.898438 57.488281 92.898438 57.488281 C 92.984375 57.402344 92.984375 57.320312 93.070312 57.234375 C 93.070312 57.234375 93.070312 57.234375 93.070312 57.148438 C 93.070312 57.066406 93.152344 56.980469 93.152344 56.980469 C 93.152344 56.980469 93.410156 56.640625 93.238281 56.8125 C 93.324219 56.726562 93.410156 56.640625 93.492188 56.554688 C 93.492188 56.554688 93.578125 56.472656 93.578125 56.472656 C 93.578125 56.386719 93.832031 56.21875 94 56.21875 L 94.253906 56.132812 L 94.425781 56.132812 C 94.425781 56.132812 94.679688 56.046875 94.511719 56.132812 C 94.339844 56.21875 94.59375 56.132812 94.59375 56.132812 L 95.019531 56.132812 L 95.441406 56.300781 C 95.527344 56.386719 95.609375 56.386719 95.695312 56.386719 L 95.867188 56.472656 L 95.949219 56.554688 L 96.203125 56.8125 C 96.203125 56.894531 96.289062 56.980469 96.375 56.980469 L 96.457031 57.148438 C 96.542969 57.320312 96.542969 57.488281 96.628906 57.574219 C 96.628906 57.65625 96.628906 57.828125 96.628906 57.914062 C 96.628906 57.996094 96.628906 57.996094 96.628906 57.996094 C 96.628906 58.167969 96.628906 58.25 96.542969 58.421875 C 96.542969 58.503906 96.542969 58.589844 96.457031 58.675781 C 96.457031 58.675781 96.542969 58.503906 96.457031 58.675781 C 96.375 58.84375 96.289062 58.929688 96.203125 59.097656 L 96.121094 59.269531 C 96.121094 59.269531 95.949219 59.4375 95.949219 59.4375 C 95.867188 59.523438 95.78125 59.523438 95.695312 59.605469 L 95.609375 59.691406 C 95.609375 59.691406 95.609375 59.691406 95.527344 59.691406 C 95.273438 59.777344 95.273438 59.777344 95.101562 59.777344 C 95.019531 59.777344 94.933594 59.777344 94.933594 59.777344 L 94.511719 59.777344 L 94.253906 59.691406 L 94 59.605469 C 93.917969 59.605469 93.746094 59.523438 93.664062 59.4375 L 93.492188 59.351562 L 93.238281 59.097656 C 93.238281 59.097656 93.152344 59.097656 93.152344 59.011719 L 93.070312 58.929688 C 93.070312 58.929688 92.984375 58.84375 92.984375 58.757812 C 92.898438 58.675781 92.898438 58.503906 92.898438 58.421875 C 92.898438 58.335938 92.898438 58.335938 92.898438 58.25 C 92.898438 58.25 92.898438 58.25 92.898438 58.167969 C 92.898438 57.996094 92.898438 57.910156 92.898438 57.742188 Z M 92.898438 57.742188 " fill-opacity="1" fill-rule="nonzero"/><path fill="#000000" d="M 93.238281 59.097656 C 93.324219 59.183594 93.324219 59.183594 93.238281 59.097656 Z M 93.238281 59.097656 " fill-opacity="1" fill-rule="nonzero"/><path fill="#000000" d="M 94.085938 56.21875 C 94.085938 56.21875 93.917969 56.300781 94.085938 56.21875 Z M 94.085938 56.21875 " fill-opacity="1" fill-rule="nonzero"/></svg>